<?xml version="1.0" encoding="UTF-8" standalone="no"?>
<svg width="92px" height="84px" viewBox="0 0 92 84" version="1.1" xmlns="http://www.w3.org/2000/svg" xmlns:xlink="http://www.w3.org/1999/xlink" xmlns:sketch="http://www.bohemiancoding.com/sketch/ns">
    <title>flagfiend</title>
    <description>Created with Sketch (http://www.bohemiancoding.com/sketch)</description>
    <defs></defs>
    <g id="Page-1" stroke="none" stroke-width="1" fill="none" fill-rule="evenodd" sketch:type="MSPage">
        <g id="noun_82323_cc" sketch:type="MSLayerGroup" fill="#000000">
            <path d="M51.3,48.5 L48.8,48.5 C41.7,48.6 34.4,49.6 27.1,51.6 C26.8,51.7 26.5,51.8 26.1,51.8 C24.5,51.8 24.2,50.4 24,49.8 L22.5,43.9 C20.3,35.2 18.1,26.5 15.9,17.8 C15.8,17.5 15.6,16.6 16.1,15.8 C16.6,15 17.5,14.9 17.8,14.8 C22.9,13.9 26.8,13.4 30.6,13 C33.3,12.7 35.9,12.6 38.1,12.6 L38.2,12.6 L38.7,12.6 C41.1,12.7 43.6,12.8 46.1,13.4 C47.1,13.7 48,14 48.9,14.5 C50.4,15.3 51.5,16.5 52.1,18.1 C54.6,24.5 57.1,30.9 59.6,37.4 L63,46.2 C63.1,46.6 63.5,47.5 62.9,48.3 C62.7,48.6 62.2,49.1 61.3,49.1 L60.9,49.1 C58.2,48.7 55.1,48.5 51.3,48.5 L51.3,48.5 Z M91.3,58.1 C91.1,57.5 90.9,57 90.7,56.4 L88.8,50.8 C86.4,43.8 84.1,36.7 81.7,29.7 C81.3,28.4 80.4,27.2 79.2,26.4 C77.4,25.2 75.4,24.6 74.1,24.3 C71.4,23.7 68.5,23.4 65,23.4 C63.6,23.4 62,23.4 60.1,23.5 C59.5,23.5 58.7,23.6 58.1,24.4 C57.6,25.2 57.9,26 58.1,26.6 L66.8,48.4 C67.5,50.1 67,52.1 65.6,53.3 L60.5,57.7 C59.4,58.7 60.1,60.6 61.6,60.6 L61.6,60.6 L61.9,60.6 L62.2,60.6 C65.8,60 69.7,59.9 73,59.8 C74.9,59.7 76.8,59.8 78.6,59.9 L78.6,59.9 C80.1,60 81.7,60.1 83.2,60.2 L84.7,60.3 C85.8,60.4 87,60.6 88.1,60.7 L88.9,60.8 L89.4,60.8 C90.4,60.8 90.9,60.3 91.1,60 C91.6,59.6 91.6,58.9 91.3,58.1 L91.3,58.1 Z M60.2,54.8 C61.5,53.9 61.1,52.6 61,52.4 C60.7,51.7 60,51.3 59.3,51.3 L59.1,51.3 C56.4,51 53.8,51 51.4,51 L51.1,51 C50.1,51 49.6,51.5 49.3,51.9 C48.7,52.8 49.1,53.8 49.3,54.1 L50.1,55.9 C50.6,57 51,58.1 51.5,59.1 C52,60.3 52.9,60.5 53.4,60.5 C54.2,60.5 54.7,60 54.9,59.8 C56.1,58.7 57.4,57.6 58.6,56.5 L60.2,54.8 L60.2,54.8 Z M28.2,80.4 L11.7,13.4 C11.4,12.3 11.7,11.2 12.3,10.3 C13.5,8.6 13.9,6.3 13.1,4 C12,1.3 9.1,-0.4 6.2,3.55965257e-15 C2.3,0.5 -0.3,4.3 0.7,8.1 C1.2,10 2.5,11.6 4.1,12.4 C5.1,12.9 5.8,13.7 6.1,14.8 L22.6,81.8 C22.9,83.1 24.1,84 25.4,84 C25.6,84 25.9,84 26.1,83.9 C27.7,83.6 28.6,82 28.2,80.4 L28.2,80.4 Z" id="Shape" sketch:type="MSShapeGroup"></path>
        </g>
    </g>
</svg>